<?xml version="1.0" encoding="utf-8"?>
<!-- Generator: Adobe Illustrator 27.0.0, SVG Export Plug-In . SVG Version: 6.00 Build 0)  -->
<svg version="1.1" id="Layer_1" xmlns="http://www.w3.org/2000/svg" xmlns:xlink="http://www.w3.org/1999/xlink" x="0px" y="0px"
	 viewBox="0 0 245.1 26.5" style="enable-background:new 0 0 245.1 26.5;" xml:space="preserve">
<style type="text/css">
	.st0{fill:#004097;}
	.st1{fill:#E50013;}
	.st2{fill:#FFFFFF;}
</style>
<g id="그룹_1" transform="translate(0 0)">
	<path id="패스_1" class="st0" d="M150.8,6.8V3.6H134v3.2h4.2l-4.7,7.8h4.2l4.7-7.8l4.6,7.8h4.2l-4.6-7.8H150.8z"/>
	<path id="패스_2" class="st0" d="M158.6,7.5c-0.7,0-1.4,0.4-1.8,1.1V3h-4.2v20.1h4.2V10.7c0.4,0.6,1.1,1.1,1.8,1.1
		c1.2,0,2.1-1,2.1-2.1C160.7,8.4,159.7,7.5,158.6,7.5C158.6,7.5,158.6,7.5,158.6,7.5L158.6,7.5z"/>
	<path id="패스_3" class="st0" d="M82.1,14.6l4.7-7.8l4.6,7.8h4.2l-4.6-7.8h4.2V3.6H78.4v3.2h4.2l-4.7,7.8L82.1,14.6z"/>
	<path id="패스_4" class="st0" d="M102.2,3H98v5.5c-0.4-0.6-1.1-1.1-1.8-1.1c-1.2,0-2.1,1-2.1,2.1c0,1.2,1,2.1,2.1,2.1
		c0.7,0,1.4-0.4,1.8-1.1v9.2H84v-3.5h-4.2v3.4l0,0.1c0,1.8,1.4,3.2,3.2,3.2h15v0h4.2v0l0,0v-3.2l0,0L102.2,3z"/>
	<path id="패스_5" class="st0" d="M73.2,6.9c-0.7,0-1.4,0.4-1.8,1.1V3.8h-4.2v16.9h-14v-3.1h-4.2v3v0.1c0,1.8,1.4,3.2,3.2,3.2l0,0
		h19.2v-3h0V10.1c0.4,0.6,1.1,1.1,1.8,1.1c1.2,0,2.1-1,2.1-2.1C75.4,7.8,74.4,6.9,73.2,6.9L73.2,6.9z"/>
	<path id="패스_6" class="st0" d="M50.9,12.5c0,2.8,2.3,5.1,5.1,5.1s5.1-2.3,5.1-5.1c0-1.2-0.5-2.4-1.3-3.3h4.5V5.9h-7.3
		c0.6-0.4,1-1,1-1.7c0-1.1-0.9-2-2-2.1c-1.1,0-2,0.9-2.1,2c0,0,0,0.1,0,0.1c0,0.7,0.4,1.3,1,1.7h-7.3v3.2h4.5
		C51.3,10.1,50.9,11.3,50.9,12.5z M56,10.7c1,0,1.8,0.8,1.8,1.8S57,14.3,56,14.3c-1,0-1.8-0.8-1.8-1.8C54.2,11.5,55,10.7,56,10.7
		C56,10.7,56,10.7,56,10.7L56,10.7z"/>
	<path id="패스_7" class="st0" d="M183.4,5.8c-0.4-0.6-1-1-1.7-1c-1.1,0-2,0.9-2,2c0,1.1,0.9,2,2,2c0.7,0,1.3-0.4,1.7-1v2.9
		c-0.4-0.6-1-1-1.7-1c-1.1,0-2,0.9-2,2c0,1.1,0.9,2,2,2c0.7,0,1.3-0.4,1.7-1v3h-18.1V19h18.1v4.1h4.2V3h-4.2V5.8z"/>
	<path id="패스_8" class="st0" d="M167,14.6h12v-3h-11v-1h11V9.9l0,0v-3V6.8l0-0.2c0-1.6-1.3-3-3-3c0,0,0,0,0,0h-0.2h-1.5h-10.5v3
		h11v1h-11v0.7l0,0v3l0,0.1l0,0.2c0,1.6,1.3,3,3,3H167z"/>
	<path id="패스_9" class="st0" d="M130.8,3.8h-4.2V15c-0.4-0.6-1.1-1.1-1.8-1.1c-0.2,0-0.5,0-0.7,0.1v-2.6h-4.3
		c0.8-1,1.2-2.2,1.2-3.4c0-0.7-0.1-1.4-0.4-2.1c-0.2-0.6-0.6-1.2-1-1.7c-0.2-0.2-0.3-0.4-0.5-0.5c-1-1-2.4-1.6-3.9-1.6
		c-1.5,0-3,0.6-4,1.6c-0.3,0.3-0.5,0.5-0.7,0.8c0,0-0.1,0.1-0.1,0.1c-0.2,0.3-0.4,0.7-0.6,1c0,0,0,0.1,0,0.1
		c-0.1,0.3-0.2,0.7-0.3,1.1c0,0,0,0,0,0.1c-0.1,0.4-0.1,0.7-0.1,1.1c0,1.2,0.4,2.4,1.2,3.4h-4.3v3.2h8.6c0,0,0,0.1-0.1,0.1
		c-0.1,0.1-0.2,0.3-0.3,0.5c0,0,0,0,0,0c-0.1,0.2-0.2,0.5-0.2,0.8c0,1.2,1,2.2,2.2,2.2s2.2-1,2.2-2.2c0-0.2-0.1-0.5-0.1-0.7
		c0-0.1-0.1-0.1-0.1-0.2c-0.1-0.1-0.1-0.2-0.2-0.3c0-0.1-0.1-0.1-0.1-0.2h4.9c-0.8,0.9-0.7,2.2,0.2,3c0.9,0.8,2.2,0.7,3-0.2
		c0.1-0.1,0.2-0.2,0.2-0.3v3.5h-14v-3.5h-4.2v3.4l0,0.1c0,1.8,1.4,3.2,3.2,3.2h15v0h4.2v0h0v-3.2h0L130.8,3.8z M115.2,10.1
		c-1.1,0-2.1-0.9-2.1-2c0-1.1,0.9-2.1,2-2.1c1.1,0,2.1,0.9,2.1,2c0,0,0,0,0,0C117.3,9.2,116.4,10.1,115.2,10.1L115.2,10.1z"/>
	<path id="패스_10" class="st0" d="M211.2,5.8c-0.6-1-1.8-1.3-2.8-0.7c-1,0.6-1.3,1.8-0.7,2.8s1.8,1.3,2.8,0.7
		c0.3-0.2,0.5-0.4,0.7-0.7v2.9c-0.4-0.6-1-1-1.7-1c-1.1,0-2,0.9-2,2c0,1.1,0.9,2,2,2c0.7,0,1.3-0.4,1.7-1v7.1h-14v-3.5H193v3.4
		l0,0.1c0,1.8,1.4,3.2,3.2,3.2h15v0h4.2V3h-4.2L211.2,5.8z"/>
	<path id="패스_11" class="st0" d="M194.9,13.8c0.2,0.2,0.4,0.3,0.6,0.5c0.1,0.1,0.3,0.2,0.5,0.3c0.2,0.1,0.3,0.2,0.5,0.3
		c0.2,0.1,0.4,0.2,0.6,0.3c0.2,0.1,0.4,0.1,0.6,0.2c0.2,0.1,0.4,0.1,0.6,0.2c0.2,0,0.5,0.1,0.7,0.1c0.2,0,0.3,0,0.5,0
		c0.8,0,1.6-0.2,2.4-0.5c0,0,0.1,0,0.1,0c0.3-0.1,0.6-0.3,0.9-0.5c0.1-0.1,0.3-0.2,0.4-0.3c0.2-0.1,0.4-0.3,0.6-0.5
		c0.1-0.1,0.1-0.1,0.2-0.2c1.1-1.1,1.7-2.7,1.7-4.3c0-0.8-0.1-1.5-0.4-2.3c-0.3-0.7-0.6-1.3-1.1-1.8c-0.2-0.2-0.3-0.4-0.5-0.6
		C202.5,3.6,201,3,199.4,3c-1.6,0-3.2,0.6-4.4,1.8c-0.3,0.3-0.6,0.6-0.8,0.9c0,0-0.1,0.1-0.1,0.1c-0.2,0.3-0.4,0.7-0.6,1.1
		c0,0,0,0.1,0,0.1c-0.1,0.4-0.3,0.8-0.3,1.1c0,0,0,0,0,0.1C193.1,8.6,193,9,193,9.4c0,1.6,0.6,3.1,1.8,4.3
		C194.8,13.7,194.9,13.8,194.9,13.8z M199.3,7.1c1.2,0,2.2,1,2.2,2.2s-1,2.2-2.2,2.2c-1.2,0-2.2-1-2.2-2.2
		C197.1,8.1,198.1,7.1,199.3,7.1C199.3,7.1,199.3,7.1,199.3,7.1L199.3,7.1z"/>
	<path id="패스_12" class="st0" d="M237.3,20.1c0.7-0.3,1.1-0.9,1.2-1.7c-0.3-1.4-1.6-2.3-3-2c-1,0.2-1.8,1-2,2
		c0,0.7,0.5,1.4,1.2,1.7h-3.5c0.7-0.3,1.1-0.9,1.2-1.7c-0.3-1.4-1.6-2.3-3-2c-1,0.2-1.8,1-2,2c0,0.7,0.5,1.4,1.2,1.7h-8.2v3.2h24.8
		v-3.2L237.3,20.1z"/>
	<path id="패스_13" class="st0" d="M224.9,16l2.1,0h16.9v-3.2h-17.9V11h17.9v0h0.1V6.1V6c0-1.8-1.4-3.2-3.2-3.2h-18.9V6h17.9v1.8
		h-17.9v0h-0.1v4.9l0,0.1C221.7,14.6,223.1,16,224.9,16z"/>
</g>
<g id="그룹_3">
	<path id="패스_14" class="st1" d="M40.9,8.8L20.9,24.2c6.1,4.1,14.3,2.5,18.4-3.5C41.7,17.2,42.3,12.8,40.9,8.8z"/>
	<path id="패스_15" class="st1" d="M20.8,8l3.4-2.2l8-5.2c-0.7-0.2-1.4-0.4-2.1-0.5l-6.4,5.1l-3,2.4l-5.5,3.7L2,20.3
		c0.3,0.5,0.6,0.9,1,1.4l12.2-9.3L20.8,8z"/>
	<path id="패스_16" class="st1" d="M40.6,8.2c-0.2-0.5-0.5-1-0.7-1.5L25.8,17.4l-5,3.8l-2,1.2l-6.4,4c0.3,0,0.5,0,0.8,0
		c0.8,0,1.6-0.1,2.4-0.2l3.7-3.4l1.5-1.3l4.6-3.1L40.6,8.2z"/>
	<path id="패스_17" class="st1" d="M20.8,5.3l2-1.2l6.4-4c-0.3,0-0.5,0-0.8,0c-0.8,0-1.6,0.1-2.4,0.2l-3.7,3.4l-1.5,1.3L16.2,8
		L1,18.3c0.2,0.5,0.5,1,0.7,1.5L15.8,9.1L20.8,5.3z"/>
	<path id="패스_18" class="st1" d="M20.8,18.9l5.5-3.7l13.3-8.9c-0.3-0.5-0.6-0.9-1-1.4l-12.2,9.3l-5.6,4.3l-3.4,2.2l-8,5.2
		c0.7,0.2,1.4,0.4,2.1,0.5l6.4-5.1L20.8,18.9z"/>
	<path id="패스_19" class="st1" d="M20.8,10.7l4.5-3l9.4-6.2C34.1,1.3,33.5,1,33,0.8l-8,6.3l-4.2,3.3l-5.6,3.8L3.3,22
		c0.4,0.4,0.8,0.8,1.2,1.2L15.3,15L20.8,10.7z"/>
	<path id="패스_20" class="st1" d="M20.8,13.4l5.3-3.5l10.6-7c-0.5-0.4-0.9-0.7-1.4-1l-9.4,7.3l-5,3.9l-5.3,3.5L5,23.6
		c0.5,0.4,0.9,0.7,1.4,1l9.4-7.3L20.8,13.4z"/>
	<path id="패스_21" class="st1" d="M20.8,16.2l5.6-3.8l11.8-7.9c-0.4-0.4-0.8-0.8-1.2-1.2l-10.7,8.2l-5.6,4.3l-4.5,3L7,24.9
		c0.6,0.3,1.1,0.6,1.7,0.8l8-6.3L20.8,16.2z"/>
	<path id="패스_22" class="st1" d="M13.2,0C5.9,0,0,5.9,0,13.3c0,1.5,0.3,3,0.8,4.4L20.7,2.3C18.5,0.8,15.9,0,13.2,0z"/>
</g>
<g>
	<g>
		<path id="패스_23" class="st2" d="M11.5,12v-1.4H9.5v6.5h1.9v-1.4c0.6,0.9,1.5,1.4,2.6,1.4h2.6v-1.8h-2.5l0,0
			c-0.8-0.1-1.4-0.8-1.4-1.6c0.1-0.7,0.6-1.3,1.4-1.4h0.2h2.2v-1.8h-2.6C13,10.6,12,11.1,11.5,12z"/>
		<path id="패스_24" class="st1" d="M14.1,10.2c-0.8,0-1.6,0.3-2.3,0.9v-0.9H9.2v7.2h2.6v-0.9c0.6,0.6,1.4,0.9,2.3,0.9H17V15h-2.9
			c-0.6-0.1-1.1-0.6-1-1.3c0.1-0.6,0.5-1,1.1-1h0h0.2H17v-2.5L14.1,10.2L14.1,10.2z M16.7,12.1v0.2h-2.2h-0.2
			c-0.8,0.1-1.4,0.8-1.4,1.6c0.1,0.7,0.6,1.3,1.4,1.4l0,0h2.5v1.8h-2.6c-1.1,0-2-0.5-2.6-1.4v1.4H9.5v-6.5h1.9V12
			c0.6-0.9,1.5-1.4,2.6-1.4h2.6V12.1z"/>
	</g>
	<g>
		<path id="패스_25" class="st2" d="M23,13.3c-0.9-1.1-2-2-3.2-2.7c0,0-0.1,0-0.1,0h-1.9v6.5h1.9v-4.5c1.3,0.9,2.3,2.1,3,3.5
			c0.1,0.3,0.2,0.6,0.3,1c0,0,0.1,0,0.3,0c0.5,0,1.6,0,1.6,0v-6.5H23L23,13.3z"/>
		<path id="패스_26" class="st1" d="M23,10.2h-0.3v2.1c-0.8-0.8-1.7-1.5-2.7-2l0,0h0c0,0,0,0-0.1,0l0,0l-0.1,0h-2.4v7.2h0.3h1.9
			h0.3v-4.1c1,0.8,1.8,1.8,2.3,3c0,0.1,0.2,0.7,0.2,0.9l0,0c0,0.2,0.2,0.3,0.3,0.3h0.3c0.5,0,1.6,0,1.6,0h0.3v-7.2L23,10.2L23,10.2z
			 M24.9,17L24.9,17c0,0-1.1,0-1.6,0c-0.2,0-0.3,0-0.3,0c-0.1-0.3-0.2-0.6-0.3-1c-0.7-1.4-1.7-2.6-3-3.5v4.5h-1.9v-6.5h1.9
			c0,0,0,0,0.1,0c1.2,0.7,2.3,1.6,3.2,2.7v-2.7h1.9L24.9,17z"/>
	</g>
	<g>
		<path id="패스_27" class="st2" d="M26.5,12.1l-0.1,0.2c-0.2,0.5-0.3,1-0.3,1.5v3.3H28v-1.8h4.6v-1.8h-4.4c0-0.6,0.5-1.1,1.1-1.2
			c0,0,0.1,0,0.1,0h3.3v-1.8h-3.4C28.1,10.6,27.1,11.1,26.5,12.1z"/>
		<path id="패스_28" class="st1" d="M32.6,10.2h-3.4c-1.2,0-2.3,0.7-3,1.7v0v0l-0.1,0.2v0v0c-0.2,0.4-0.3,0.8-0.4,1.3h0v4h2.6
			v-1.8H33v-2.5h-4.4c0-0.1,0.1-0.2,0.1-0.2c0.2-0.2,0.4-0.2,0.6-0.2h3.3H33v-2.5L32.6,10.2z M32.6,12.3h-3.3
			c-0.6,0-1.1,0.5-1.2,1.1c0,0,0,0.1,0,0.1h4.4v1.8H28v1.8h-1.9v-3.3c0-0.5,0.1-1,0.3-1.5l0.1-0.2c0.6-0.9,1.6-1.5,2.7-1.5h3.4V12.3
			z"/>
	</g>
</g>
</svg>
